<?xml version="1.0" standalone="no"?>
<!DOCTYPE svg PUBLIC "-//W3C//DTD SVG 20010904//EN"
 "http://www.w3.org/TR/2001/REC-SVG-20010904/DTD/svg10.dtd">
<svg version="1.0" xmlns="http://www.w3.org/2000/svg"
 width="300.000000pt" height="300.000000pt" viewBox="0 0 300.000000 300.000000"
 preserveAspectRatio="xMidYMid meet">
<metadata>
Created by potrace 1.11, written by Peter Selinger 2001-2013
</metadata>
<g transform="translate(0.000000,300.000000) scale(0.100000,-0.100000)"
fill="#000000" stroke="none">
<path d="M1349 2985 c-3 -2 -27 -7 -54 -10 -28 -4 -77 -13 -110 -21 -33 -8
-68 -17 -78 -19 -51 -12 -157 -50 -157 -57 0 -4 -7 -5 -15 -2 -8 4 -15 1 -15
-5 0 -6 -7 -11 -16 -11 -18 0 -75 -30 -86 -45 -4 -5 -8 -6 -8 -2 0 4 -25 -8
-55 -28 -31 -19 -59 -35 -64 -35 -5 0 -11 -3 -13 -7 -2 -5 -24 -22 -49 -40
-85 -59 -201 -168 -269 -253 -19 -24 -41 -49 -48 -56 -6 -7 -12 -15 -12 -19 0
-8 -43 -69 -52 -73 -5 -2 -8 -10 -8 -18 0 -8 -5 -14 -12 -14 -6 0 -8 -3 -5 -6
4 -4 -2 -19 -12 -33 -16 -24 -29 -49 -75 -151 -22 -49 -66 -180 -60 -180 3 0
0 -8 -5 -17 -5 -10 -12 -34 -15 -53 -3 -19 -8 -46 -11 -60 -15 -68 -19 -117
-19 -255 0 -160 4 -234 13 -250 3 -5 6 -21 7 -35 0 -14 4 -35 8 -47 4 -12 9
-30 11 -40 8 -38 48 -160 67 -203 31 -69 82 -174 88 -180 3 -3 11 -17 19 -32
8 -16 18 -28 23 -28 4 0 8 -5 8 -11 0 -7 16 -31 35 -55 19 -23 35 -45 35 -47
0 -20 194 -211 266 -263 52 -37 129 -89 154 -103 55 -32 166 -84 178 -84 6 0
12 -3 12 -7 0 -6 111 -44 135 -46 6 0 17 -4 25 -7 38 -14 88 -27 125 -31 22
-3 54 -8 70 -12 39 -10 326 -11 390 -2 49 7 76 12 123 23 12 3 32 7 45 10 51
10 217 69 217 76 0 5 7 6 15 3 8 -4 15 -1 15 5 0 6 7 11 15 11 17 0 56 20 66
33 3 5 8 8 10 7 9 -4 59 24 59 32 0 5 5 6 10 3 6 -3 10 -1 10 4 0 6 4 11 10
11 11 0 72 41 95 64 9 9 19 16 23 16 24 1 254 233 286 289 5 9 16 22 23 29 7
7 13 19 13 27 0 7 6 15 13 18 6 2 21 22 33 43 11 22 26 50 34 64 7 14 17 32
21 40 14 25 41 84 43 95 1 6 7 20 14 31 6 12 8 24 5 28 -3 3 0 6 7 6 7 0 11 3
7 6 -3 4 1 23 8 43 8 20 16 45 18 56 1 11 6 25 10 31 3 6 8 25 9 43 1 17 5 31
8 31 3 0 6 12 6 27 1 16 5 42 9 58 13 55 15 349 2 357 -9 6 -9 8 1 8 7 0 10 5
7 11 -4 5 -9 22 -11 37 -15 115 -36 202 -47 195 -6 -4 -7 -1 -2 6 6 11 -3 45
-32 121 -4 8 -7 17 -7 20 -1 3 -7 14 -13 25 -6 11 -11 22 -12 25 -3 22 -36 90
-43 90 -4 0 -8 7 -8 14 0 8 -13 35 -30 59 -16 25 -30 48 -30 51 0 7 -13 24
-42 57 -10 10 -18 22 -18 25 0 12 -88 113 -94 107 -3 -4 -6 -2 -6 4 0 13 -77
93 -83 87 -3 -3 -8 4 -12 15 -3 12 -11 21 -16 21 -5 0 -22 11 -37 25 -30 29
-168 121 -222 150 -19 10 -42 22 -50 26 -21 12 -54 26 -63 27 -4 1 -20 8 -35
16 -15 8 -56 25 -92 37 -36 11 -72 24 -80 27 -8 2 -27 6 -42 8 -14 1 -34 6
-45 11 -10 5 -28 8 -40 7 -13 0 -23 1 -23 5 0 3 -10 7 -22 8 -48 5 -376 12
-379 8z"/>
</g>
</svg>
